# written by convert_mb_to_amc()
:FULLY-SPECIFIED
:DEGREES
46
upperback -2.168970 -7.426070 -0.076414
rfoot 22.687599 -9.253300
lradius 23.729300
lthumb 13.721200 51.138199
rradius 17.786600
lwrist -20.482500
rhand -18.464500 -20.521400
rhumerus -52.024399 -18.214800 -60.178200
lowerneck -3.941220 -3.091520 -2.363380
lhand -12.348500 21.610600
ltibia 37.535999
head 6.539630 -1.765750 1.662960
rwrist 26.945999
lfingers 7.125020
rtoes 21.673100
lowerback 1.213760 -5.586740 0.617495
rfingers 7.125020
lclavicle 0.000000 0.000000
upperneck 18.886999 -4.438120 4.855350
rfemur -58.631401 -7.499530 31.749399
thorax -2.994820 -3.711370 -0.133582
rclavicle 0.000000 0.000000
rtibia 41.250801
lfoot -19.412001 2.198370
lhumerus -35.637402 16.366899 67.962799
rthumb 7.822060 -50.356701
root 33.925430 18.867968 -2.326005 558.992981 68.216499 -165.173004
ltoes 12.782600
lfemur -20.389700 -5.870490 -19.343000
47
upperback -2.054209 -5.168038 1.702847
rfoot 18.809757 -21.614334
lradius 19.364637
lthumb 7.584211 54.190884
rradius 12.347847
lwrist -27.295643
rhand -20.155617 -20.808172
rhumerus -40.541286 -17.545242 -64.695221
lowerneck -2.091693 -8.061729 -6.867890
lhand -18.710890 24.347218
ltibia 39.284863
head 6.626986 -5.198312 2.672541
rwrist 45.268749
lfingers 7.125020
rtoes 27.466946
lowerback 1.650614 -3.971764 1.810315
rfingers 7.125020
lclavicle 0.000000 -0.000000
upperneck 18.051657 -11.216277 7.175594
rfemur -52.185196 18.394976 -4.599169
thorax -3.038039 -2.583751 0.960492
rclavicle 0.000000 -0.000000
rtibia 39.882645
lfoot -17.489445 -1.914984
lhumerus -38.330696 20.654621 62.886684
rthumb 6.189566 -50.697712
root 33.702526 18.865564 -2.130850 558.540039 56.598118 -164.822311
ltoes 13.766665
lfemur -23.420641 -24.293297 -13.399469
48
upperback -1.800569 -0.141740 1.993665
rfoot 24.245674 -6.859802
lradius 12.165380
lthumb 10.657104 52.524345
rradius 9.879687
lwrist -41.853497
rhand -16.147827 -24.241102
rhumerus -3.995677 -11.688038 -76.365929
lowerneck -1.224686 -11.112809 -9.670856
lhand -15.526278 22.814611
ltibia 43.949406
head 6.916531 -7.341874 2.950182
rwrist 48.686470
lfingers 7.125020
rtoes 12.367435
lowerback 3.164777 -0.245939 1.774685
rfingers 7.125020
lclavicle -0.000000 -0.000000
upperneck 17.548801 -15.321273 7.785746
rfemur -43.477314 -2.709033 9.272867
thorax -3.628969 -0.073069 1.066570
rclavicle -0.000000 -0.000000
rtibia 63.075382
lfoot -17.947859 4.169758
lhumerus -48.255249 26.542263 48.720482
rthumb 10.057517 -53.980701
root 33.272415 18.638685 -1.821152 557.883667 57.646488 -164.329346
ltoes 18.838024
lfemur -26.291662 -27.823750 -13.247332
49
upperback -1.978985 -0.067916 0.471292
rfoot 13.091070 -6.731088
lradius 9.490596
lthumb 13.124700 52.645905
rradius 20.851688
lwrist -51.198650
rhand -15.492448 -21.094660
rhumerus 55.757607 18.478374 -52.804619
lowerneck -2.406429 -8.036405 -6.564519
lhand -12.967329 23.078962
ltibia 48.873032
head 7.554558 -5.041945 2.735278
rwrist 11.113092
lfingers 7.125020
rtoes 4.998529
lowerback 0.587735 -0.115074 2.937988
rfingers 7.125020
lclavicle 0.000000 0.000000
upperneck 20.706640 -11.273660 7.589631
rfemur -33.885071 -14.372935 25.010693
thorax -2.364542 -0.075090 -1.160998
rclavicle 0.000000 0.000000
rtibia 78.705498
lfoot -20.490780 6.354691
lhumerus -58.030563 28.423317 42.419281
rthumb 10.689759 -50.802727
root 33.164486 18.381634 -1.616796 561.281616 63.197998 -160.543884
ltoes 17.097466
lfemur -28.202618 -22.931416 -12.978088
